/* XPM */
static char *_07ced3a8c6e48f3cbe21947114bc6a18HMAxvNSvJ18HRgG[] = {
/* columns rows colors chars-per-pixel */
"46 45 71 1 ",
"  c #FF887A",
". c #FF8476",
"X c #FF8475",
"o c #FF8474",
"O c #FF8374",
"+ c #FF8373",
"@ c #FF8273",
"# c #FE806F",
"$ c #FD7D6B",
"% c #FC7A66",
"& c #FC7763",
"* c #FB7561",
"= c #FB745F",
"- c #FB745E",
"; c #FA735E",
": c #FC7965",
"> c #FD7A68",
", c #FE7F6E",
"< c #FE8170",
"1 c #FA735D",
"2 c #FA705A",
"3 c #F96F58",
"4 c #F96F57",
"5 c #F97059",
"6 c #FA715B",
"7 c #FA725D",
"8 c #FB7560",
"9 c #FD7A67",
"0 c #FE8171",
"q c #FF8272",
"w c #FC7966",
"e c #FD7C69",
"r c #FD7D6C",
"t c #FE7E6D",
"y c #FE7F6F",
"u c #FE8070",
"i c #FE7F6D",
"p c #FD7B68",
"a c #FC7865",
"s c #FB725C",
"d c #FA715A",
"f c #FB735E",
"g c #FA745E",
"h c #FA725C",
"j c #FD7C6A",
"k c #FC7764",
"l c #FC7967",
"z c #FA7059",
"x c #F96F59",
"c c #FB7661",
"v c #FD7E6C",
"b c #FC7864",
"n c #FC7A68",
"m c #FF8271",
"M c #FB7662",
"N c #FA725B",
"B c #FF8576",
"V c #FC7762",
"C c #FC7A67",
"Z c #FD7B69",
"A c #FD7E6D",
"S c #FB7763",
"D c #FE8272",
"F c #FC7B68",
"G c #FA6F58",
"H c #FC7662",
"J c #FB7762",
"K c #F97058",
"L c #FF8171",
"P c #FA7A6B",
"I c white",
/* pixels */
" ..XXoO++++OoXXX..XXXXXXXXXXXXXXXXXXXXXXXXXXXX",
"@#$%&*=-;;-=*&:>$,<@OXXXXXXXXXXXXXXXXXXXXXXXXX",
"123344333333443335678&9$,0@OXX..XXXXXXXXX..XOq",
"3333333333333333333334335618&wertyu000<#i$pa8s",
"3333333333333333333333333333443352d666d2533433",
"3333333333333333333333333333333333333333333333",
"3333333333333333333333333333333333333333333333",
"3333333333333333333333333333333333333333333333",
"333567f===gfh625334333333333333333333333333333",
"8:j,0q+OOO++q0#tj9k816533433333333333333333334",
"OX.XXXXXXXXXXXXX.XXO@0,jl&=16z333344444433x21c",
"XXXXXXXXXXXXXXXXXXXXXXX.XXO@0,vjpw:b&kb:njtu@X",
"XXXXXXXXXXXXXXXXXXXXXXXXXXXXXX...XXXXXXX...XXX",
"XXXXXXXXXXXXXXXXXXXXXXXXXXXXXXXXXXXXXXXXXXXXXX",
"XXXXXXXXXXXXXXXXXXXXXXXXXXXXXXXXXXXXXXXXXXXXXX",
"X.XXO@m0000q@OoXX..XXXXXXXXXXXXXXXXXXXXXXXXXXX",
"#$wM=7N6666h1-*&wet#qOXX.XXXXXXXXXXXXXXXXXXXXB",
"d334333333333344335dh=Vwjt<qOXXX....XX...XXOq#",
"33333333333333333333334335dh=MbCZ$vAttA$ZCk8h2",
"333333333333333333333333333333433333x5x3334333",
"3333333333333333333333333333333333333333333333",
"3333333333333333333333333333333333333333333333",
"3333333444433333333333333333333333333333333333",
"435h-8MSb&MM8-h6533443333333333333333333333333",
"aj,D+oXXXXXXoOq0,rpac;653344333333333333333343",
"X.XXXXXXXXXXXXXXX..XX+0,$9bcfhdz333333333zd1*w",
"XXXXXXXXXXXXXXXXXXXXXXXX.XXX+q<,v$jZFpZjv,<@oB",
"XXXXXXXXXXXXXXXXXXXXXXXXXXXXXXXX.........XXXXX",
"XXXXXXXXXXXXXXXXXXXXXXXXXXXXXXXXXXXXXXXXXXXXXX",
"XXXXXXXX..XXXXXXXXXXXXXXXXXXXXXXXXXXXXXXXXXXXX",
".XX+0u,tAAt,u0@OXXX.XXXXXXXXXXXXXXXXXXXXXXXXXX",
"rlMf62z5335z267=capry0+XX..XXXXXXXXXXXXXXXXXXB",
"3343333333333333433326-caZv#0+OXXX.....XXXOq#$",
"3333333333333333333333344332Nf8MbwCFZpnwbM=h2G",
"3333333333333333333333333333333443333334443333",
"3333333333333333333333333333333333333333333333",
"3333333333333333333333333333333333333333333333",
"3333444333434433333333333333333333333333333333",
"35h=SaCFpFCwaS8-hd5334333333333333333333333333",
"Z,DOXXX...XXXXo+qutewH=h2x33433333333333333433",
".XXXXXXXXXXXXXXXXXX.XXOD#rZ:J=1hd2zzK5zzdhf*:j",
"XXXXXXXXXXXXXXXXXXXXXXXXX.XXXO+q<#,tAti,uq+oXB",
"XXXXXXXXXXXXXXXXXXXXXXXXXXXXXXXXXXXX.XXXXXXXXX",
"XXXXXXXXXXXXXXXXXXXXXXXXXXXXXXXXXXXXXXXXXXXXXO",
"LXXXXXXXXXXXXXXXXXXXXXXXXXXXXXXXXXXXXXXXXXXXXP"
};
