/* XPM */
static char *_70af1a3c26043becf52be00c165c067zaMEhAJMdC6o9Cdo[] = {
/* columns rows colors chars-per-pixel */
"46 45 34 1 ",
"  c #5F3D1D",
". c #643F1C",
"X c #5E3F22",
"o c #66401D",
"O c #68431F",
"+ c #5F4124",
"@ c #644323",
"# c #694523",
"$ c #6B4826",
"% c #64462A",
"& c #684728",
"* c #66492C",
"= c #6C4C2B",
"- c #6F502E",
"; c #71512E",
": c #674C31",
"> c #6A4E32",
", c #6D5134",
"< c #6F5438",
"1 c #745533",
"2 c #775836",
"3 c #795937",
"4 c #725639",
"5 c #75593B",
"6 c #7C5D3C",
"7 c #7F603F",
"8 c #7A5E40",
"9 c #7E6142",
"0 c #80613F",
"q c #846544",
"w c #866845",
"e c #846748",
"r c #866949",
"t c #886B4D",
/* pixels */
"tweqwwwwwwqwweqqwwqqqqqwqqqqeqqeeqqqeewwqwwwww",
"wwwwwqqqqqwwqqqqwqqqqqqqqqqqqqqeqeqeqewwwwwwww",
"wwwwq4:5qeeeqqqqqqqqqqqqqqq0qqqeqeeqqwwqwwqwqq",
"wwwew5*5eqq0qqqq0qqqqq0qqq08<10qqqqqwqqwwwweee",
"wwwwweewq0885<<<<448800q008:#@,qqqqqq0q0qqqeeq",
"wewqweq5<,::&$$#&$$;>>400008::8q0qqqq888148qqe",
"qwwwwq4<=#o.oo..ooOO#&=;80000q000e0008=@#&$1qe",
"wwewq5>&Oo......o..oOO#$&100000000008%OO.o##0e",
"wwqq0<$$O...........oOO&&=50010000000<+X  X;ew",
"wwww0,$$OO...o.......OO##&00000000000q08,8qeew",
"weqqq6&#$OO.oo.......oOO@,044,:><88000qeqeewqw",
"wqqeqq6=O#OOoooo...... @841::&&&&=&800q0qqqwqw",
"qqqqqqq03>&@.@..... .%>422<&#OO.O##&0000qqqqwq",
"ww0858q0q085<>>>=>,,4544;2;;&o... X,000000qqqq",
"wq,**:000066065332412;;11;211>&%@><0008,,<00qe",
"qq5:*4q000033331111;;;;;;;;;;148040888>&@@%0ee",
"wqqeqe070703322111;;----;;-;1;111010001%&%88qe",
"wqqqqq077033321,&**&=--==----**>>>>,,1800ee0qq",
"qwqqq7q73703321=%&&X#--$==&+***#&#&&&>;880e0qe",
"wwqq96667332221;%XX+--$-$%*-#ooooooooO#&>8e0qq",
"qw84,>,,1433211;,,1;;=$=@--OOooo...o.o###;0qqe",
"w8<=#@@@$&13311;;;===$==*$$$#ooo....oO##&=eqqq",
"qq1@oo..o+<6211,;;===$$$=$@@OOoo......XX%80qqq",
"we05,*+%:46222;1;=======*--*%+  ....XX%>0e0eqe",
"qqqwqqq877331-**$-$--=$=$=---,->=>,<40000qqqqe",
"eqqqq0q87633,%@@+=---==&%%%%=-11110480000qqqqq",
"qqqqq00876632-%%=,-$$-&%$=%@%--1101100000qqqqe",
"wqqqqq0q766325522-----*&OOooo%11110010000qqqqe",
"wqqqq000676631111-1-;;-=+X  +,12;011080<;80qqq",
"wwqq0q0q7541,,,,----;;;;,-,-411201004008@>0qeq",
"qqqqqq05<,=%*=*=-*--;;1;111111220110000q0qqqqw",
"wwqqqq5>=$@ooooO#$=>-1;1;111222211000000qqqqqw",
"qqeqq04$&#......o&#&#41111104>>>>><30000qqqqew",
"wwqqqq6=#####...oooX>322333;>>=#&&==40qqqqqqqq",
"qqqqqqq02:&@@Xo.XX%,0332330;>$&..O$$*00q0qeqwq",
"wq4<0qqqqq885555880038020633=##OOOOO%qqqqqeeww",
"wq8<qqqqq00qqq800000050330663=@@ .X:8qqqqqwwww",
"wwwweqqqqqqq00000005000860000088448qqqqqqewqwq",
"ewwwqqqqqqqqq0q0000000086000000qqq0q0qqqqqeqww",
"qwwqqeqqq880qqq000000<,>>180q0q0qqqqeqqqwwwwww",
"wwww84<<>,425qqqqq0004@.X%0q00qq0qe08880qwwwww",
"www8<=&#@#$&=2qqqqqqqq0580qqqqqqqqq0:%&:5wwwww",
"eww0;@@....X+4qqqqqqqqqqqqqqqqqqqqe0,&X%0eewww",
"wqqe084>*::48eeqqqqqqqqqqqqqqqqeqeqqeqqeqqwwwq",
"qwqwwwrrrrrreewqqqweeqeeqqqqeqwqwewqwwwewwwqqq"
};
