/* XPM */
static char *_047c11d70d448b993fc14dd87dad07aoPq0wqUbdgFKm3Ph[] = {
/* columns rows colors chars-per-pixel */
"46 45 179 2 ",
"   c #1F1E1B",
".  c #352A1A",
"X  c #171B2D",
"o  c #242423",
"O  c #2D2721",
"+  c #2E2B26",
"@  c #25262B",
"#  c #282628",
"$  c #2B2B2A",
"%  c #322C25",
"&  c #312E28",
"*  c #3A3527",
"=  c #3C3927",
"-  c #343229",
";  c #3C352B",
":  c #3E3A28",
">  c #343435",
",  c #3C3C3D",
"<  c #412C16",
"1  c #412E19",
"2  c #45311C",
"3  c #4B331A",
"4  c #5A3817",
"5  c #633C16",
"6  c #633F1A",
"7  c #463625",
"8  c #433E26",
"9  c #40372C",
"0  c #4B3C2B",
"q  c #5F3F22",
"w  c #503F2C",
"e  c #603F20",
"r  c #66411C",
"t  c #68421D",
"y  c #6D611E",
"u  c #72661D",
"i  c #76691C",
"p  c #796C1C",
"a  c #474225",
"s  c #4B4524",
"d  c #4F4923",
"f  c #4F402F",
"g  c #514B23",
"h  c #53422F",
"j  c #5A452D",
"k  c #585022",
"l  c #4D4B3B",
"z  c #544331",
"x  c #594530",
"c  c #5E4A33",
"v  c #654424",
"b  c #6A4622",
"n  c #6D4A25",
"m  c #664728",
"M  c #67492B",
"N  c #6A4B2B",
"B  c #724F2B",
"V  c #625920",
"C  c #73512E",
"Z  c #634B32",
"A  c #6B4E30",
"S  c #6D5234",
"D  c #6D553A",
"F  c #725435",
"G  c #785937",
"H  c #745739",
"J  c #76593A",
"K  c #7B5D3C",
"L  c #7E603E",
"P  c #444445",
"I  c #4D4D4C",
"U  c #555553",
"Y  c #6A6548",
"T  c #7E6141",
"R  c #62625F",
"E  c #646462",
"W  c #646469",
"Q  c #77756E",
"!  c #787876",
"~  c #857414",
"^  c #84751B",
"/  c #8C7B19",
"(  c #917F18",
")  c #81623F",
"_  c #887B30",
"`  c #856542",
"'  c #876844",
"]  c #886843",
"[  c #896B4C",
"{  c #958217",
"}  c #998616",
"|  c #9C8815",
" . c #958319",
".. c #A38E15",
"X. c #A89214",
"o. c #B59D11",
"O. c #97872F",
"+. c #A08F30",
"@. c #C7AC0E",
"#. c #CEB20C",
"$. c #D4B605",
"%. c #D3B60C",
"&. c #D5B80C",
"*. c #DBBC0A",
"=. c #C0A610",
"-. c #DEC012",
";. c #EECC07",
":. c #E3C309",
">. c #E6C608",
",. c #EAC909",
"<. c #F0CE07",
"1. c #F7D406",
"2. c #FBD603",
"3. c #FEDB03",
"4. c #FAD709",
"5. c #FBD80A",
"6. c #FBD915",
"7. c #F7D71B",
"8. c #FBDA1C",
"9. c #FFE003",
"0. c #FFE801",
"q. c #D9C138",
"w. c #FCDC23",
"e. c #F4D628",
"r. c #FBDD2E",
"t. c #FBDE34",
"y. c #FFE32D",
"u. c #FFE635",
"i. c #8E8866",
"p. c #C0B25D",
"a. c #FCE24E",
"s. c #D5C66E",
"d. c #F0DB63",
"f. c #EBDA75",
"g. c #FBE775",
"h. c #FCE97B",
"j. c #7C7C81",
"k. c #858588",
"l. c #898A8B",
"z. c #949282",
"x. c #8C8D91",
"c. c #919196",
"v. c #9F9E93",
"b. c #A6A6AA",
"n. c #AAAAAB",
"m. c #CEC58C",
"M. c #E7DC9A",
"N. c #F8E787",
"B. c #FDED8D",
"V. c #FFF68B",
"C. c #FBEC96",
"Z. c #FBED9B",
"A. c #FFF29C",
"S. c #CEC7A3",
"D. c #DBD6B9",
"F. c #E1D8A1",
"G. c #FBEEA3",
"H. c #FFF7AE",
"J. c #FFF8B3",
"K. c #BCBDC3",
"L. c #DDD9C0",
"P. c #C9CCDB",
"I. c #D7D6D4",
"U. c #DAD9D6",
"Y. c #F2EDC9",
"T. c #FDF7CA",
"R. c #E9E7DA",
"E. c #F7F2D1",
"W. c #FBF5D2",
"Q. c #FEFBD5",
"!. c #FCF7D9",
"~. c #FFFEDD",
"^. c #DADBE8",
"/. c #E8E8EC",
"(. c #FBF7E3",
"). c #FDFCEC",
"_. c #F7F6F4",
"`. c #FBFBF3",
"'. c #FEFEFB",
/* pixels */
"[ ' ' ' ] ' ' ' ' ' ` ' ` ' ` ` ` ` ` ` ` ` ` ` ` ` ` ` ` ` ` ` ` ` ` ` ' ` ' ` ' ' ] ' ' ` ",
"' ` ` ' ` ` ` ` ` ' ' ` ' ` ` ` ` ` ` ` ` ` ` ` ` ` ` ` ` ` ` ` ` ` ` ` ' ' ' ] ' ` ' ' ' ` ",
"' ` ' ' ` F N G ' ` ' ` ` ` ` ` ` ` ` ` ` ) ` ` ` ` ` ` ` ) ` ` ` ` ` ` ` ` ' ] ' ' ` ' ] ` ",
"' ' ' ' ` H M G ` ' ` ` ` ` T ) ) ` ) ` ) ` ` ` ` ) ) H F F ) ` ` ` ` ` ` ` ` ` ` ' ' ' ] ' ",
"' ' ' ' ' ` ' ' ` ) K G H D F w O $ $ $ @ $ $ $ # # $ $ $ $ O Z ` ` ` ` ` ` ` ` ' ` ` ] ` ] ",
"' ` ' ` ` ' ` K H A M v q 6 r 2 % $ , 9 , , , , , , $ # # $ % z T T H K ` K H D F H G ) ' ` ",
"` ' ' ' ' ` D S n t 5 3 1 1 < . O # W l.c.c.c.c.x.j., @ @ # $ 9 z z f Z H S n b 6 b n F ` ' ",
"' ' ` ` ` H A n 5 4 4 % > $ > > $ > n./.'.'.'.'.`.U.U o & $ & $ $ $ $ ; Z n t 5 5 6 6 b ` ` ",
"' ' ` ` ) S b t 4 1 . . > I k.l.k.l.m.N.B.B.B.B.B.f.+.~ / / i s @ $ $ , S F v 6 5 4 4 F [ ] ",
"' ' ' ` ` C b 6 3 O O   $ W P.^.^.^.f.r.8.8.8.w.8.7.,.:.:.*.o.V X @ $ : F ) T G F H ` [ ` ` ",
"` ' ` ` ` G n e 2 $ > P R z.Y.Q.Q.T.g.u.r.y.r.r.r.e.*.&.,.3.:.{ a = $ ; c D K ` ' ' ` ` ` ` ",
"' ' ` ` ` ` G m 1 $ P b.R.M.t.w.w.r.B.Y.!.!.!.!.E.D.Y d / 1.1.,.@.y ; # % + x K ` ` ` ` ` ' ",
"` ` ` ` ` ` ` K w $ I K.`.G.8.2.2.5.C.(.'._.'.'._.I.U % p 1.3.3.,.i ; @ $ # w K ` ` ` ` ` ' ",
"' ` T K K K z w ; # P K.'.G.6.2.2.5.C.`.).C.h.h.g.s.l + p 1.3.9.,.i - @ $ $ w K K ` ) ` ` ' ",
"' ) A m v N $ $ $ > I K.).Z.8.2.2.5.C.`.W.r.2.2.1.$.d & p 1.3.3.,.p 8 $ $ $ 0 m A F G ` ` ] ",
"' ` K M m S $ $ P R Q S.J.g.6.2.2.4.C.`.E.y.4.3.1.#.d $ p 4.3.3.;.| y s - $ * 3 3 b v K ` ` ",
"' ` ` ' ` ` $ > ! U.D.d.w.8.5.2.2.5.C.`.W.t.5.2.2.&.g + p 1.3.2.1.:.:...s $ $ $ & v S ` ` ` ",
"' ` ` ' ` ` # > x.'.~.a.2.2.2.5.2.2.C.`.W.t.5.3.1.&.g $ p 1.3.2.3.3.0.@.g $ $ $ $ ' ` ` ` ` ",
"` ` ` ) ` T $ > l.'.!.a.2.2.2.2.2.4.C.`.W.t.4.3.1.&.d $ p 1.3.5.2.4.9.=.g & # $ $ ) ` ` ` ` ",
"` ` ` ) L L $ > k.'.!.a.2.2.5.2.2.4.C.`.W.t.5.2.1.%.d + p 4.3.2.4.1.9.=.d $ $ $ # K ` ` ` ` ",
"` ` K H S N # > l.'.!.a.2.2.2.2.2.2.C.`.W.t.5.3.1.&.g & p 1.3.4.2.2.9.=.g $ # $ $ B T ` ` ` ",
"` ` S N b r # > k.'.!.a.2.2.2.2.2.5.C.`.W.t.2.3.1.&.d $ i 1.3.4.4.2.9.@.g $ @ $ $ M ` ` ` ` ",
"` ` F 6 r 6 @ > l.'.!.a.2.2.2.2.2.5.C.`.W.t.4.2.1.&.d $ p 1.3.3.3.4.9.=.g $ @ $ $ K ` ` ` ` ",
"` ` ` G N m $ > l.'.!.a.2.2.5.5.2.2.C.`.W.t.5.3.1.&.d + p 1.3.4.4.5.9.=.g $ @ $ $ ` T ` ` ` ",
"` ` ` ` ` ` $ > k.'.!.a.1.2.2.2.2.5.C.`.W.t.1.3.1.&.d & p 1.3.4.2.5.9.=.g $ # $ $ ` ` ) ` ` ",
"` ` ` ) ) ) $ > k.'.!.a.2.5.2.5.2.1.C.`.W.t.5.3.1.&.g + p 1.3.4.2.2.9.=.g $ @ $ $ ) ) ` ` ` ",
"` ` ` ` ) ) # > l.'.Q.a.2.2.2.2.2.2.C.`.W.t.5.3.1.&.d $ p 1.3.2.2.5.9.=.g $ $ $ $ ) ` ` ` ` ",
"` ` ` ` ` ` $ > l.'.Q.a.2.2.2.2.2.5.C.`.W.t.1.3.1.&.d $ p 4.3.2.2.1.9.=.d $ $ $ $ ) ` ` ` ` ",
"` ` ` ) ` ) # > x.'.(.a.2.2.2.2.2.5.C.`.W.t.4.3.1.&.g $ p 1.3.4.2.2.0.@.g $ # > & H ` ` ` ` ",
"] ` ` ` ) ` $ > ! ^.L.d.8.w.4.2.2.2.C.`.W.t.5.3.1.&.d & p 1.3.2.4.:.:.X.a $ & % + A ` ) ` ' ",
"] ` ` ` ` ` $ $ P W ! S.H.g.6.2.3.5.C.`.W.t.4.3.1.&.g $ p 1.3.3.<.| u g - $ 9 j Z ` ` ` ' ` ",
"] ` ` ` ) ` $ $ $ > I S.).Z.6.2.2.2.A.'.~.u.9.9.3.*.g $ p 1.3.9.,.p 8 $ $ $ w F ) ) ` ` ` ' ",
"` ` ` ` ` ` 0 7 % # P K.'.G.8.2.2.4.p.v.z.O. .}  .^ = & i 1.3.9.,.i - @ $ $ h K ` ` ` ` ` ` ",
"' ` ` ` ` ` G v 1 $ I K.'.Z.8.2.3.1.^ = # $ & $ $ & @ = p 1.3.3.>.i ; @ $ # z K ` ` ` ` ` ' ",
"` ` ` ` ` ` ` K 0 $ P n.R.M.t.6.5.2.{ k a a a a a a 8 g / 4.4.;.#.y - # + % z K ) ) ` ` ` ' ",
"` ` F F K ' ` K z $ > P E z.Y.V.y.3.:.&.#.#.#.#.#.#.&.-.>.3.:.{ s : $ % 7 D K T ` ` ` ` ' ' ",
"' ` G F ` ` ` K c & &   $ W P.F.q.*.1.3.9.9.9.9.9.9.<.>.>.*.o.V X @ > - S ` ` ` ` ` ` ` ` ] ",
"' ] ' ' ' ` ` T D 0 0 $ > I k.i._ / #.<.3.3.3.2.4.>.| ^ / / p d @ $ $ ; S ` ` ` ` ` ' ' ' ' ",
"' ` ' ' ` ` ` ` ` T S ; $ $ > $ $ - X.<.9.3.3.3.2.-.k @ $ & $ $ $ $ $ ; S ` ` ` ` ] ' ` ' ' ",
"' ' ' ` ' ` ` ) ` ) T Z z z w ; $ $ V ^ /  .( ( / p = o @ @ $ : z z z c K T ` ' ` ` ` ' ' ` ",
"' ` ' ` T H F A A A A A D H T h % $ - ; : : : : = * $ # $ $ % h T G J K T K K K ` ` ' ] ` ] ",
"` ' ' K A m n t r r b n n G ` Z % $ $ # # # # $ # $ $ # $ $ % c ` ` ` K A m v m G ] ' ` ' ' ",
"' ` ' ` N r 6 6 5 5 5 6 e F ' ` ` ` ` ` ` ` ` ` ' ` ` ` ` ` ` ` ` ` ` ` A v q v T [ ` ] ] ] ",
"` ' ' ' ' K A A M N A S T ' ` ` ` ` ` ` ` ` ) ` ` ` ` ` ` ` ` ' ` ` ` ' ` ` ` ' ` ` ' ] ` ] ",
"` ' ' ` ' ' ' [ [ ' [ ' ' ' ` ` ` ` ` ` ` ` ` ` ` ` ` ` ' ` ' ` ' ` ' ` ' ' ' ' ` ' ] ` ' ` "
};
