/* XPM */
static char *_2e8d29c1e2d4c279a7b66b08647192fgNOd6Z5hQBmO95u3[] = {
/* columns rows colors chars-per-pixel */
"46 45 77 1 ",
"  c #37BBCD",
". c #3CC1D2",
"X c #46C4D3",
"o c #4DC5D6",
"O c #4ECAD9",
"+ c #56C5D4",
"@ c #5BC6D4",
"# c #55C7D8",
"$ c #5BCADB",
"% c #64CDDD",
"& c #69CEDD",
"* c #74CEDA",
"= c #73D1DE",
"- c #5ED3E2",
"; c #65CFE0",
": c #65D3E3",
"> c #6FD3E4",
", c #63DAE8",
"< c #71D5E5",
"1 c #7BD5E4",
"2 c #77DBE7",
"3 c #7ED8E7",
"4 c #72D7E8",
"5 c #75DBEB",
"6 c #74E1EE",
"7 c #78E1EF",
"8 c #77E2F0",
"9 c #7BE4F2",
"0 c #7EE9F6",
"q c #81D4DF",
"w c #84D5E1",
"e c #83D8E6",
"r c #8BDAE6",
"t c #84DBE9",
"y c #8CDCE9",
"u c #92DAE4",
"i c #93DDEA",
"p c #9BDFEA",
"a c #A4DFE8",
"s c #94E1EC",
"d c #9CE2EC",
"f c #84E5F1",
"g c #82E9F6",
"h c #8BEBF6",
"j c #94E7F1",
"k c #98E7F0",
"l c #94EDF7",
"z c #9DEBF5",
"x c #94EDF8",
"c c #9DEEF8",
"v c #A8E0E7",
"b c #A3E2ED",
"n c #ABE5EE",
"m c #B3E5EB",
"M c #B8E7ED",
"N c #A6E6F0",
"B c #A9E7F1",
"V c #A1EEF8",
"C c #B2E7F0",
"Z c #B3EAF3",
"A c #BAEAF2",
"S c #AAF1F9",
"D c #B2F1F9",
"F c #C3EDF3",
"G c #CBEDF3",
"H c #CFF0F6",
"J c #C5F5FB",
"K c #C8F2F8",
"L c #D2F1F7",
"P c #D8F3F7",
"I c #DBF5F9",
"U c #D4F8FC",
"Y c #E9F5F7",
"T c #E1F6FA",
"R c #E4FAFD",
"E c #F5FDFE",
"W c #FCFEFF",
/* pixels */
"g0000000g000000000000000000000000000000000000g",
"0099877555777799900000000000000000000000000000",
"54<<>><>>>>>>>><<<557890000000000000gg000g0000",
">>>>>>><>>>>>>>><>>>>>><<557999990hBkkh0009975",
">>>>>tiw1>>><>>>>>>>>>>>>>>>>>><4tAG+o>35>4>>>",
">>>>1ur#&<>>>>>>>>>>>>>>>>>>>>>><u@1%;$*4>>>>>",
">>>>1@;1re>>>>>>>>>>>>>>>>>>>>>>1=o;><yp<>>>>>",
">><<<;yFIy>>>>>>>>>>>>>>>>>>>>>><*;4taPH1>>>>>",
">>>><eAIN<<<<>>>>>>>>>>>>>>>>>>>>=1pGEEB>>>>>>",
"<55798fg0999988775<<>>>>>>>>>>>>>>eATIN<>>>>>4",
"000000000000000000009977554>4<>>4>>414><>>>>>4",
"0000000000000000000000000009887555444444557789",
"0000000000000000000000000000000000009000000000",
"00000000000000glcxg0000000000g0000000000000000",
"0000000000000cKMuubzg0000000000000000000000000",
"000000000009VFYm. X<jg000000000000000000000000",
"9875454<<<<tn@ar%--->f000000000000000000000000",
"<>>>>>>>>>>p* #;>>>:>e558999000000000000000000",
">>>>>>>>>>>i+o;>><2tpp>>>><55558778889987775<<",
">>>>>>>>>><r+$><<edALC>>>>>>>>><><<<<<<<>>><>>",
">>>>>>>>>>>1&$1epATWWd>>>>>>>>>>>>>><>>>>>>>>>",
">>>>>>>>>>><=1yBLEWWG1>>>>>>>>>>>>>>>>>>>>>>>>",
">>>>>>>>>>>>>wZPWWEF3>>>>>>>>>>>>>>>>>>>>><>>>",
"><<<5555555555yBACi<>>>>>>>>111>>>>>>>>>>>>>>>",
"7809000000000009986555<<<><bmqwe<>>>>>>>>>>>>>",
"00000000000000000000000988svmOO%1<>>>><<>>>4<5",
"0000000000000000000000000heO697538988778890000",
"0000000000000000000000000h>,0glSDg000000000000",
"0000000000000000000000000g28hSUEJ0000000000000",
"000000000000000000000000009jDEWIx0000000000000",
"009099877788999000000000000hSJDl00000000000000",
"544>4>>>>>>>>><>555579000000000000000000000g00",
"4>>>>>41>>>>>>>>>>>>>4<4457799900g000000000997",
">>>>>ip=1>>>>>>>>>>>>>>>>>>><<44445555555<<44>",
">><>1w1$%>>>>>>>>>>>>>>>>>>>>>>>>><>>>>><>>>>>",
">>>>1#>3ay>>>>>>>>>>>>>>>>>>>>>>>>>>>>>>>>>>>>",
">>>><=aPTt>>>>>>>>>>>>>>>>>>>>>>>>>>>><>>>>>>>",
">>>>>1BFy>><>>>>>4>>>>>>>>>>>>>>>>>>>><1>>>>>>",
"<<577899998977754444>>4>>>>>>>>>>>>>>ya*1<>>>>",
"900000000000000g00998755444>>>>>>>>>1w1$%=>>><",
"0000000000000g0000000000009987555<5<3$>tbi5778",
"00000000000000000000000000000000000007cIRx0000",
"00000000000000000000000000g0000000000fDJz00000",
"0000000000000000000000000000000000000000000000",
"9g00000000000000000000000000000000000000000009"
};
