/* XPM */
static char *f680f5ffb017452fb56ab3186c689226MRku5wgQSIptCNsZ[] = {
/* columns rows colors chars-per-pixel */
"46 45 215 2 ",
"   c #2B3937",
".  c #2D3936",
"X  c #363C36",
"o  c #5F3B17",
"O  c #50391B",
"+  c #5F3C1B",
"@  c #643D16",
"#  c #643E19",
"$  c #713F26",
"%  c #793B33",
"&  c #37403C",
"*  c #3B413C",
"=  c #5C431D",
"-  c #66411C",
";  c #69431C",
":  c #6F4B1E",
">  c #754E1B",
",  c #5E4A23",
"<  c #474436",
"1  c #4B4433",
"2  c #564735",
"3  c #5C4536",
"4  c #654424",
"5  c #6A4622",
"6  c #6B4A25",
"7  c #654629",
"8  c #674A2C",
"9  c #69482C",
"0  c #6A4C2C",
"q  c #76472C",
"w  c #754B2D",
"e  c #685525",
"r  c #72512E",
"t  c #654C34",
"y  c #6C4D31",
"u  c #694D3B",
"i  c #724C33",
"p  c #7B4B34",
"a  c #774D3A",
"s  c #655033",
"d  c #6E5233",
"f  c #69543D",
"g  c #735534",
"h  c #7A5434",
"j  c #775837",
"k  c #7B5B36",
"l  c #745639",
"z  c #7D5239",
"x  c #755A3A",
"c  c #7C5D3A",
"v  c #7C6627",
"b  c #7E603E",
"n  c #354341",
"m  c #3C4744",
"M  c #3C4845",
"N  c #4D4D4D",
"B  c #5C5349",
"V  c #5A5957",
"C  c #6D4A43",
"Z  c #724A42",
"A  c #675648",
"S  c #765944",
"D  c #655857",
"F  c #735B58",
"G  c #7E6141",
"H  c #67625C",
"J  c #776355",
"K  c #585B63",
"L  c #7E5C60",
"P  c #5D616A",
"I  c #5D6470",
"U  c #686467",
"Y  c #6B6A6C",
"T  c #756967",
"R  c #6C6C74",
"E  c #6A6E79",
"W  c #726B71",
"Q  c #6B747A",
"!  c #76737A",
"~  c #882726",
"^  c #892A29",
"/  c #88362D",
"(  c #95322E",
")  c #953535",
"_  c #9D3433",
"`  c #9A3B39",
"'  c #A23534",
"]  c #A33A3A",
"[  c #A83B38",
"{  c #B1393C",
"}  c #884A2C",
"|  c #824F36",
" . c #894A34",
".. c #814C39",
"X. c #99483B",
"o. c #835135",
"O. c #8B5135",
"+. c #84533A",
"@. c #8A533B",
"#. c #825E3D",
"$. c #8C5A3E",
"%. c #97583A",
"&. c #A2473F",
"*. c #816734",
"=. c #81613E",
"-. c #B13E41",
";. c #884746",
":. c #97484B",
">. c #865741",
",. c #8C5C43",
"<. c #9A5242",
"1. c #935C45",
"2. c #955D4A",
"3. c #9C5D4C",
"4. c #914D50",
"5. c #8A5153",
"6. c #9A5557",
"7. c #A54344",
"8. c #AB4442",
"9. c #B24345",
"0. c #B9484D",
"q. c #BA4C4C",
"w. c #AC544A",
"e. c #B9564C",
"r. c #BC4951",
"t. c #A45554",
"y. c #B95C54",
"u. c #856542",
"i. c #876844",
"p. c #886844",
"a. c #8B6649",
"s. c #92634A",
"d. c #9B654D",
"f. c #856353",
"g. c #956954",
"h. c #877859",
"j. c #977252",
"k. c #9B7355",
"l. c #A1694E",
"z. c #A36753",
"x. c #A36A54",
"c. c #A86957",
"v. c #AC765D",
"b. c #9C5C65",
"n. c #846368",
"m. c #8A7766",
"M. c #8E746F",
"N. c #AE7860",
"B. c #B47A63",
"V. c #AC6474",
"C. c #C7494D",
"Z. c #C14751",
"A. c #C64C54",
"S. c #D14E57",
"D. c #C15355",
"F. c #CE535B",
"G. c #D5535F",
"H. c #C47B58",
"J. c #DB5662",
"K. c #C6687C",
"L. c #B09135",
"P. c #B79737",
"I. c #CCA938",
"U. c #BDA441",
"Y. c #9B997A",
"T. c #B7846B",
"R. c #A88E70",
"E. c #BF8D75",
"W. c #D7AF4B",
"Q. c #D2926D",
"!. c #C9947B",
"~. c #C4A96A",
"^. c #E6CB61",
"/. c #6B7C85",
"(. c #797881",
"). c #837C85",
"_. c #837F88",
"`. c #B0768A",
"'. c #398DA3",
"]. c #548588",
"[. c #7E8386",
"{. c #85828B",
"}. c #89848A",
"|. c #8A969D",
" X c #B68494",
".X c #9BA381",
"XX c #9193A7",
"oX c #949FA3",
"OX c #979AA5",
"+X c #A79BAE",
"@X c #96A2A4",
"#X c #97A7B3",
"$X c #9EB2BA",
"%X c #ADAFB0",
"&X c #D59D84",
"*X c #CCB399",
"=X c #ECB887",
"-X c #C191A3",
";X c #EEC38A",
":X c #EBCCA3",
">X c #A39BD0",
",X c #B6AFC1",
"<X c #A4B9C7",
"1X c #B5BACC",
"2X c #ABBBD5",
"3X c #BABED2",
"4X c #9FB7F0",
"5X c #ACC1D1",
"6X c #B9CBDF",
"7X c #F2E2C7",
"8X c #C2D3ED",
"9X c #C9D9F7",
"0X c #C5E4FC",
"qX c #D3E5FE",
"wX c #D9ECFF",
/* pixels */
"a.i.i.i.i.i.i.i.i.i.u.i.u.i.u.u.u.u.i.u.i.u.u.u.u.a.i.i.u.i.u.i.p.u.u.i.u.i.i.i.u.i.i.u.p.i.",
"i.i.i.i.u.u.u.u.u.i.i.u.i.u.i.u.u.u.a.j.k.j.j.k.a.u.u.u.u.i.u.u.u.u.i.u.p.i.u.i.i.i.i.i.u.i.",
"i.i.i.u.u.l 8 j i.u.u.i.i.u.u.u.u.u.k.!.&X!.&X&Xk.u.u.G u.u.u.u.u.p.u.u.u.u.i.i.p.p.i.i.i.u.",
"i.i.i.i.u.j 8 j i.u.i.G u.u.c u.=.u.S s.B.!.B.B.T.E.T.i.d l c u.=.u.u.u.u.u.u.i.u.p.i.i.i.i.",
"i.u.i.i.u.i.u.i.=.b g 8 g l g d l y i z ,.g.v.z.B.!.!.k.w # d u.u.u.u.u.i.i.u.u.u.u.u.p.u.p.",
"i.i.i.u.i.u.u.S l s e , 4 4 5 ; 5 w ,.2.>.>.N.N.c.c.v.N.a.t x u.=.u.=.u.u.c l g y g x u.i.i.",
"i.i.i.i.u.u.x d 5 - e e = o @ @ @ z z.z.3.2.z.N.z.3.z.B.k.u.u.=.=.u.u.u.c s 8 5 5 5 6 i u.i.",
"i.i.u.u.u.j y 5 - - - e e = o @ # p 3.z.z.2...,.3.2.2.x.k.#.=.=.#.u.#.u.c 0 ; @ @ @ # 5 =.i.",
"i.i.i.u.=.g 5 ; ; @ @ ; 6 , = ; > # i 2.g.g.F B s.f.S g.g.b b b =.=.=.=.=.g 4 @ @ @ = y i.i.",
"i.u.i.u.u.r 5 ; ; @ @ @ o O v P.P.v + q z.*X0X'.R.Y.].V } b b k c =.=.=.=.=.=.x g x S a.i.u.",
"u.i.u.u.u.k 5 ; ; ; ; @ : L.I.U.%Xc./ q a R.7X*X*X:X*Xh.y d y y d j k b =.=.i.p.u.i.u.u.u.i.",
"i.i.u.u.u.u.c 8 ; @ ; ; > W.^..X4X`.` / % t.Q.=X;X=XQ.c.| 6 4 : 6 0 0 k =.=.=.=.u.u.u.u.u.i.",
"i.u.i.u.u.u.u.c j 0 4 - : P.~.OX>X`.' ( ] 0.e.Q.Q.H.D.S.w.- @ @ - ; ; 5 c =.=.u.u.u.u.u.i.i.",
"i.u.b c x c u.=.u.=.b k j *.c.K.V.7.^ ) q.G.A.e.e.&.9.G.e.# @ @ o # + y =.=.=.=.c u.u.u.u.i.",
"i.u.d 7 4 0 b =.#.c b k c <.q.C.6.5.;.] 9.0.q.Z.C.D.A.q.6.J 0 4 7 d j =.c b j d d i x u.i.u.",
"u.u.j 8 7 g u.=.c #.k #.1.D.F.6.)./.W -._ ^ ) F.F.G.A.' 4.}.J x k k c c c k 0 4 - 4 4 c u.i.",
"i.u.i.u.u.p.=.=.=.k k s.F.-.5.)._.(.L 7.&.-.-.` ) ) _ ] 6.}.}.J j k k k c c h 7 4 4 s i.i.u.",
"u.u.u.u.=.=.=.=.=.=.k 1.J.{ 5.{._.E C :. X-X{ [ ] _ 8. X+X(.}.J 0 8 0 d g j b =.=.u.i.u.u.u.",
"u.p.u.u.u.=.=.=.#.k ,.w.r.:.n._.! D Z M.,X,X` ;.;.:.`.3X<XU ! S 5 5 5 ; 6 8 y g c =.u.u.u.u.",
"u.u.u.=.=.b c k #.#.y.S.) n.{.(.D % 6.XX$X}.q V N R @X$X[.V ! Z @ @ - @ @ - ; 6 r x u.u.u.u.",
"i.u.c l d y 0 s o.y.F.&.^ F E Y V Z @.g.g.,.a V N D f.s.A U 1Xm.o @ @ @ @ - ; ; 5 w u.u.u.u.",
"i.u.y 8 ; - - 5 } q.C.:. X#X#X(.A a o. .O.O.z D I D p } f.|.9X1Xm.@ @ @ @ @ ; ; - 0 u.u.u.u.",
"u.u.g - - @ @ @ $ ] [ b.9XwX8XoXx q +.@.| +.Z ! Q H | } m.<X9XwX1Xm.5 @ @ @ - - 4 c u.u.u.u.",
"u.u.u.j 0 4 4 5 q &.' b.9XwX8XoXx q | | | Z D (.(.J +.O.M.<X8XqXqX3XS @ o + 7 d G u.u.G u.u.",
"u.u.u.u.u.u.G ,.<.8.' 6.9XqX8XoXf q | | C D E }._.Y A T XX2X6X8XwXqXm.d x c =.=.=.=.=.u.u.u.",
"i.u.=.u.u.=.u.X.q.9.( b.9X9X6XoXy q @.| V U _.(._.E P ! XX>X#X2XqX9Xm.c c c k =.u.=.u.u.u.i.",
"u.u.u.u.i.=.b <.8.` ~ b.8X2X$XoXA o.%.$.D K W Y Y R U S F |.#X#X5X8Xm.k c b =.=.=.u.=.u.u.u.",
"i.u.u.u.u.=.b <.9.` ~ 6.<X<X|.H g p @.@...@.1.$.1.,.;.| q f U R Y Y G k k b #.b =.=.u.u.u.p.",
"u.u.u.u.=.u.=.=.X.` _ 6.OX@X[.B r o.p 3 1 3 3 3 3 2 3 h } d f B H V x k c c c j d j u.u.u.u.",
"p.p.u.u.u.=.=.=.+. .) ;.! T D B 0 r 3 * . . . X .   * 3 i j g f A B x b c #.#.g 4 0 u.u.u.u.",
"u.u.u.u.u.u.u.k i i q 9 g y t 0 7 1 * & X . . . .   & * 2 r g g x x k k =.=.=.=.G u.u.u.u.u.",
"u.p.u.u.=.u.j y 0 5 # @ @ @ @ ; ; < n m * X 2 2 X X M & < h k g k k k k #.=.=.=.u.u.=.u.u.i.",
"u.u.p.u.=.=.j 6 ; ; - - @ @ @ @ # 1 N m X < r h 1 & m m < d d s 0 d g j b =.=.=.u.u.u.u.u.u.",
"p.u.u.u.u.u.b 6 ; ; - - @ @ @ @ @ 1 m m X < k g 1 * m M 2 0 8 - ; 6 6 0 j =.=.=.u.u.u.p.p.u.",
"u.u.u.u.=.i.u.b g 8 4 - # + @ @ + 9 u t t d c j g < * u i 6 ; # @ ; ; ; 6 b =.u.=.u.u.u.u.u.",
"u.u.j y b i.G u.i.u.b b j x l l j @.@.y g c k k b s 2 h  .q 5 # @ @ ; ; 4 u.u.=.u.u.p.u.p.p.",
"p.u.x g u.u.u.u.u.u.=.u.u.=.=.b $.1.,.h r k c c k g i | @.o.5 # @ @ - 7 S i.=.i.u.u.u.i.i.i.",
"i.i.i.i.i.u.u.u.=.=.u.=.G =.=.=.a.d.d.1.#.b #.c b g y o.@.+.c j l l S G i.=.i.=.u.u.u.u.u.p.",
"i.u.i.i.u.u.u.u.u.u.u.u.u.=.=.=.1.d.s.u.=.=.c c k b g 0 | o.#.u.u.u.u.=.=.=.i.u.p.u.u.i.p.u.",
"i.i.i.u.i.u.u.>.=.=.=.=.u.=.=.u.s.l.,.=.#.k d y y g k y z +.=.u.u.=.u.u.i.u.i.u.i.u.i.i.i.i.",
"i.u.i.u.c j l s d d d x x =.u.u.s.d.+.#.=.g 4 # + 7 c i o.+.#.=.=.i.i.=.>.x c S u.u.i.i.i.i.",
"i.i.i.b d 8 5 - - - 5 5 0 h u.=.,.+.h =.u.=.c x x G G i y i z ,.u.=.i.S d 7 5 7 x p.i.i.i.i.",
"u.i.i.G 0 - - @ @ @ @ # # l p.=.+.y l >.=.=.p.p.i.u.#.l y y z #.u.u.u.u.y - = 7 c i.i.i.u.i.",
"i.i.i.i.u.c l s 8 8 8 d S i.i.u.u.u.u.u.p.u.u.=.u.u.u.u.u.u.u.i.u.i.i.u.u.u.u.i.p.i.i.i.i.u.",
"u.u.i.i.i.i.a.i.a.i.i.i.a.i.u.i.u.u.a.u.u.u.u.u.u.u.u.u.u.u.u.i.i.i.u.i.i.i.i.i.i.u.i.u.u.u."
};
