/* XPM */
static char *e303885633cb4c848e3b5d4124bc9d38QFVhiqjlj8hs2ySH[] = {
/* columns rows colors chars-per-pixel */
"46 45 196 2 ",
"   c #B1B1B1",
".  c gray67",
"X  c #AAAAAA",
"o  c #A9A9A9",
"O  c gray66",
"+  c #A7A7A7",
"@  c #A2A2A2",
"#  c gray62",
"$  c #A0A0A0",
"%  c #A4A4A4",
"&  c gray65",
"*  c #AFAFAF",
"=  c #959595",
"-  c #8E8E8E",
";  c #A5A5A5",
":  c gray60",
">  c #727272",
",  c #605F5F",
"<  c gray39",
"1  c #777777",
"2  c gray64",
"3  c #9F9F9F",
"4  c gray61",
"5  c #989898",
"6  c #9A9A9A",
"7  c #9D9D9D",
"8  c gray59",
"9  c #9E9D9D",
"0  c #A09F9F",
"q  c #9B9B9B",
"w  c #C0C0C0",
"e  c #C3C3C3",
"r  c gray73",
"t  c #B4B4B4",
"y  c #929292",
"u  c #909090",
"i  c gray51",
"p  c gray57",
"a  c #A4A3A3",
"s  c #B6B6B6",
"d  c gray77",
"f  c gray79",
"g  c #CACACA",
"h  c gray76",
"j  c gray74",
"k  c gray75",
"l  c #C1C1C1",
"z  c gray",
"x  c #ACACAC",
"c  c #939393",
"v  c #818181",
"b  c gray37",
"n  c gray43",
"m  c gray63",
"M  c #848484",
"N  c gray38",
"B  c gray56",
"V  c #C7C6C6",
"C  c #C5C5C5",
"Z  c gray70",
"A  c gray71",
"S  c gray72",
"D  c gray48",
"F  c #898989",
"G  c gray45",
"H  c #545353",
"J  c gray55",
"K  c #D0D0D0",
"L  c gray81",
"P  c gray78",
"I  c #AEAEAE",
"U  c #8D8D8D",
"Y  c gray46",
"T  c #6A6A6A",
"R  c #979797",
"E  c #767676",
"W  c #C4C3C3",
"Q  c #C2C1C1",
"!  c #B5B4B4",
"~  c gray40",
"^  c gray36",
"/  c #5A5A5A",
"(  c #656565",
")  c #7E7E7E",
"_  c gray58",
"`  c #BBBABA",
"'  c #A7A6A6",
"]  c #878686",
"[  c #646363",
"{  c #4E4E4E",
"}  c gray29",
"|  c #4B4A4A",
" . c #585858",
".. c #B9B9B9",
"X. c #808080",
"o. c #757474",
"O. c #616060",
"+. c #4F4E4E",
"@. c #4C4B4B",
"#. c #4C4C4C",
"$. c gray30",
"%. c #535353",
"&. c gray47",
"*. c #888888",
"=. c #555454",
"-. c #4B4B4B",
";. c #4E4D4D",
":. c gray31",
">. c #515151",
",. c #646464",
"<. c gray54",
"1. c #8B8B8B",
"2. c gray52",
"3. c gray53",
"4. c #979696",
"5. c DimGray",
"6. c #5D5C5C",
"7. c #7C7C7C",
"8. c #868686",
"9. c gray50",
"0. c #919292",
"q. c gray42",
"w. c #8C8B8B",
"e. c gray68",
"r. c #797979",
"t. c #686868",
"y. c #505050",
"u. c #4A4949",
"i. c gray33",
"p. c #747474",
"a. c #838383",
"s. c gray49",
"d. c #BBBBBB",
"f. c #807F7F",
"g. c #6C6C6C",
"h. c #7B7B7B",
"j. c LightGray",
"k. c gray80",
"l. c #C8C8C8",
"z. c #BCBCBC",
"x. c #B7B7B7",
"c. c #ACADAD",
"v. c #ACABAB",
"b. c #B2B1B1",
"n. c gray69",
"m. c #838282",
"M. c #7B7A7A",
"N. c #6D6D6D",
"B. c #585757",
"V. c #565656",
"C. c #5B5B5B",
"Z. c #6D6C6C",
"A. c #717171",
"S. c #5F5E5E",
"D. c gray35",
"F. c #858484",
"G. c #7D7C7C",
"H. c #606060",
"J. c #5D5D5D",
"K. c gray34",
"L. c #6F6F6F",
"P. c gray44",
"I. c #5B5A5A",
"U. c #626262",
"Y. c #949393",
"T. c #A9AAAA",
"R. c #CBCBCB",
"E. c gray82",
"W. c #C6C6C6",
"Q. c #BEBDBD",
"!. c #B2B2B2",
"~. c #BAB9B9",
"^. c #A5A4A4",
"/. c #CDCDCD",
"(. c #6C6B6B",
"). c gray32",
"_. c #767575",
"`. c #9C9B9B",
"'. c #565555",
"]. c #5F5F5F",
"[. c #666565",
"{. c #575656",
"}. c #7C7B7B",
"|. c #5B5C5C",
" X c #6A6969",
".X c #676767",
"XX c #5A5959",
"oX c #5C5B5B",
"OX c #5E5D5D",
"+X c #636262",
"@X c #979898",
"#X c #A2A1A1",
"$X c #989797",
"%X c #9B9A9A",
"&X c #7E7D7D",
"*X c white",
/* pixels */
"  . X X o O + X X X X X X X X X o o O O O O O O O O O O o o o X X X X X X X X X X X X X X . ",
"X X X @ # $ @ % X X X X X o o O O + + + + & & & & & + + + O O o o X X X X X X X X X X X X X ",
"X X + $ * & = - O X X o o O + + & & ; ; % % % % % % ; ; & & + + O o o X X X X X X X X X X X ",
"X X + : > , < 1 % X o O O & % ; ; % 2 2 @ @ @ @ @ @ 2 3 $ % ; & + + O o X + o X X X X X X X ",
"X X X + 2 + X . . o O % 4 5 4 : : 6 7 # $ $ $ 3 $ 3 8 7 # : 3 % ; & & O # 9 0 + X X X X X X ",
"X X X . . . X X + $ : q X w e r t . @ q 8 = : 7 # 6 y = u i p 2 2 % ; q 2 r 5 : o X X X X X ",
"X X X X X o % 4 : a s d f g h r j k l l z x c q q q 6 v b n 3 $ m @ 6 & z M N B x X X X X X ",
"X X X X & 4 @ t h V C d d C j   Z A S t 3 D F q 5 5 : 4 8 7 # 7 3 # 5 # G H J x o X X X X X ",
"X X X X 3 s K L P e e e e d z I X % U Y T T 8 8 = 8 8 R 5 : 6 q 4 # 3 - E 8 X + O o X X X X ",
"X X X o 3 s w f P e W d Q ! c G ~ ^ / ( ~ ) 8 y y c c _ = 8 R : 6 4 # m ; ; % & + O X X X X ",
"X X X + $ S A t z e ` ' ] [ { } | {  .( ~ B u B B u u p y _ = 8 5 6 4 7 3 m 2 % & + o X X X ",
"X X o ; @ ..A . _ X.o.O.+.| @.#.$.%. ./ &.p J J J U - B u p c _ 8 5 6 4 7 3 m 2 ; ; 3 m o X ",
"X X o 2 % r I *.O.=.=.$.-.#.#.;.:.>.,.M u <.F F F <.1.F 2.3.F J u _ R 6 4 # $ @ % @ : 4.6 X ",
"X o O m & ; X.5.N 6./ >.#.$.{ ;./ 7.B J 3.3.8.8.3.8.9.8.. * + 3 R 0.B u c : # $ @ % = q.w.e.",
"X o + % 6 r.T 5.5.t.( / y.u.i.p.- U 3.2.2.M a.a.) s.# h g k z l l k d.A e.q 4 3 m % m f.% . ",
"X O + ; % $ = 8.1 g.~ / y.5.1.u *.2.M a.i v X.h.- k j.k.l.z.t A x...z e A - : # $ @ ; & o o ",
"o O & % @ $ 3 3 4 = 3.E 3.c J 3.2.a.i X.9.9.) v 6 O . c.e.o v.  b.Z S n.- i c # 3 @ % & + o ",
"o + & 2 m $ 7 q 5 8 = _ u 1.*.8.M v X.) s.7.7.s.s.7.9.X.7.Y 7.*.u 5 7 3.m.M 1.7 3 m 2 ; + o ",
"O + ; 2 m : c c = _ y B J <.3.M i X.) 7.h.D r.r.h.s.s.v X.M.N.B.H V.C.Z.v 2.2.q # $ 2 ; + O ",
"O + ; 2 q = . 4 c - u - 1.*.8.a.v 9.7.h.r.&.1 1 &.r.s.s.9.i A.S. .=.%.D.n v v _ # $ @ % & O ",
"O & ; @ # c ] F.G.a.p U <.*.2.v D 1 D r.&.E Y Y E 1 r.) ) h.T < H.J.C.K. .~ G *.# 3 @ % & O ",
"O & % @ $ q M.i.n c y U <.3.) s.c X 8.r.1 Y p.p.Y E &.D 9.h.A.L.N.T t.< C.K.D.P.7 $ @ % & O ",
"O & % @ $ # _ U q _ B U <.v R Z o J P.D E p.G G p.E &.D 7.v 8.F J B u y c y p _ # 3 @ % & O ",
"O & % @ $ # 4 6 8 c u U <.M B n I.C.T 7.E Y p.p.Y E &.D 7.9.v M 8.F J B y 8 : 4 7 3 @ % & O ",
"O ; 2 @ $ # q 5 8 c u U <.*.3.M M M v h.1 E Y Y E 1 r.h.s.9.i M 3.<.U B y = 5 q 7 $ @ % & O ",
"; q q 3 $ # 4 : 8 _ p - 1.F 3.a.v ) 7.D r.&.1 1 1 &.D 7.) X.i 2.*.1.U u c 8 8 R 7 $ @ % & O ",
"q @ B <.7 3 4 6 R _ y B J F 3.M i X.) 7.h.D r.r.r.D 7.s.9.i a.i 8.J B p _ 8 u = 8 3 2 ; + O ",
"% 2.U.) 3 $ 7 R B - - B U 1.*.8.a.v 9.) 7.&.&.h.7.7.) X.) h.9.Y.U 3.U y = R _ 9.r.4 % ; + O ",
"T.+ % O 2 $ 6 u n.+ q - *.F F *.2.a.v X.D <.a.7.9.) h.&.a.$ w g t & c U c 5 4 - p % % & + o ",
"o O + % 2 3 y t e Z s s O = 3.M 2.2.M i ) v A.2.h.D - I e f R.C   t t O R c 5 $ 2 @ % & O o ",
"X o + & @ _ A k.h t * t S r t $ F 3.8.2.i r.*.v <.S E.E.l.d W.Q.' X I Z Z . 7 R 7 2 ; + O X ",
"X o O & 5 !.K l.h s + . e.X $ F a.- *.3.3.F 8.M <.$   l P W.C ~.# $ ^.X I Z A I m 7 % O o X ",
"X X o m + L /.V l   = 2.o.(.~ ~ B - 1.<.<.F *.F 3.u _ = 6 + !.7 p 6 7 $ % o * A t 4 m o X X ",
"X X X # s d e * *.~  .).V.H.H.3.= B - U J J 1.1.1.U _ c 1.9.r.> _.v u : 7 m % `.8.Y 2 X X X ",
"X X X $ o 2 B t.'.).).i.J.].1 6 c y p u B B - - B - c = p M 5.].[.Z.o.X.- 2.G N.N.r.X X X X ",
"X X X O R F A.,.S.I.{.V.I.( : : 8 = _ c y y y y y p p = y }.,.|.D.C.N  XZ.^ ].g.N.3.e.X X X ",
"X X X X ; a.T .X< S.K.y.>.F 3 6 : 5 R 8 = = _ _ = = c p i G g.( H.6./ XXC./ < n g.= x X X X ",
"X X X X X O % m q 8 - M *.m 7 4 q 6 : : 5 5 R R R 5 5 p &.L.n n (..XU.b C.oX( L.n @ . X X X ",
"X X X X X X X o O O + + ; m 3 # 7 7 4 q q q 6 6 6 q q 7 7 c v G n n n T ,.OX,.g.E X X X X X ",
"X X X X X X X X O + & ; % 2 m $ $ 7 = = 6 7 7 7 7 7 7 # 3 m 2 # B h.P.n g.+X].+X9.e.X X X X ",
"X X X X X o ; % O O + & ; % % 2 @ @X; #X$XR 4 3 3 $ $ $ m @ @ % + + 7 *.p.U.D.K.1.e.X X X X ",
"X X X X X 3 4 R 6 X o O + & ; ; 2 5 q _ 6 q y q @ @ @ 2 2 % % ; & + o . + y > ^ 6 x X X X X ",
"X X X X o %X8.r.- . X o o O + + & 2 F N.K.H.8.2 % % % ; ; & & + O O o X X e.. @ X X X X X X ",
"X X X X X X . x x X X X X o o O O O % &XD # X + & & & + + O O o o X X X X X X . X X X X X o ",
"% o X X X X X X X X X X X X X X o o o o e.X O O O O O O o o X X X X X X X X X X X X X X O : "
};
